<svg xmlns="http://www.w3.org/2000/svg" width="1200" height="630" viewBox="0 0 1200 630">
  <defs>
    <linearGradient id="bg" x1="0" y1="0" x2="0.3" y2="1">
      <stop offset="0%" stop-color="#FAFBFF"/>
      <stop offset="100%" stop-color="#EBF2FF"/>
    </linearGradient>
  </defs>

  <!-- Background -->
  <rect width="1200" height="630" fill="url(#bg)"/>

  <!-- Logo -->
  <g transform="translate(80, 60) scale(2.2)">
    <circle cx="16" cy="16" r="15.74" fill="#005CE8"/>
    <circle cx="8.83" cy="23.17" r="2.21" fill="none" stroke="#fff" stroke-width="1.54"/>
    <path d="M8.83,20.96c0-3.31,2.21-6.62,6.62-8.82,3.31-1.65,5.51-2.21,6.62-2.21" fill="none" stroke="#fff" stroke-linecap="round" stroke-width="1.54"/>
    <path d="M25.37,9.94c0,1.82-1.49,3.31-3.31,3.31-1.57,0-2.9-1.1-3.23-2.58-.05-.23-.08-.48-.08-.73,0-1.82,1.48-3.31,3.31-3.31s3.31,1.49,3.31,3.31Z" fill="#fff"/>
  </g>
  <text x="165" y="100" font-family="system-ui, -apple-system, sans-serif" font-size="28" font-weight="700" fill="#1D1D1F" letter-spacing="-0.5">BusiKM</text>

  <!-- Main headline -->
  <text x="80" y="220" font-family="system-ui, -apple-system, sans-serif" font-size="62" font-weight="700" fill="#1D1D1F" letter-spacing="-2.5">Automatyzuj</text>
  <text x="80" y="295" font-family="system-ui, -apple-system, sans-serif" font-size="62" font-weight="700" fill="#1D1D1F" letter-spacing="-2.5">kilometr&#243;wk&#281;</text>
  <text x="80" y="370" font-family="system-ui, -apple-system, sans-serif" font-size="62" font-weight="700" fill="#005CE8" letter-spacing="-2.5">swoich klient&#243;w.</text>

  <!-- Subtitle -->
  <text x="80" y="430" font-family="system-ui, -apple-system, sans-serif" font-size="22" fill="#6E6E73">GPS + eksport do Insert GT, Comarch, Symfonia</text>

  <!-- Bottom -->
  <text x="80" y="570" font-family="system-ui, -apple-system, sans-serif" font-size="18" fill="#86868B">busikm.pl</text>
  <rect x="80" y="530" width="100" height="3" rx="1.5" fill="#005CE8" opacity="0.3"/>
  <text x="1120" y="570" text-anchor="end" font-family="system-ui, -apple-system, sans-serif" font-size="16" fill="#86868B">Web &#183; iOS &#183; Android</text>

  <!-- RIGHT SIDE — 3 stat cards stacked -->
  <g transform="translate(700, 120)">
    <!-- Card 1: savings -->
    <rect width="420" height="120" rx="20" fill="white" stroke="#E8E8ED" stroke-width="1"/>
    <rect x="24" y="30" width="52" height="52" rx="14" fill="#005CE8" opacity="0.08"/>
    <text x="50" y="64" text-anchor="middle" font-family="system-ui" font-size="24" fill="#005CE8">&#8595;</text>
    <text x="96" y="52" font-family="system-ui, -apple-system, sans-serif" font-size="15" fill="#86868B">Oszcz&#281;dno&#347;&#263; na pojeździe / mies.</text>
    <text x="96" y="86" font-family="system-ui, -apple-system, sans-serif" font-size="36" font-weight="700" fill="#005CE8" letter-spacing="-1">76 z&#322;</text>

    <!-- Card 2: clients free -->
    <g transform="translate(0, 140)">
      <rect width="420" height="120" rx="20" fill="white" stroke="#E8E8ED" stroke-width="1"/>
      <rect x="24" y="30" width="52" height="52" rx="14" fill="#34C759" opacity="0.08"/>
      <text x="50" y="64" text-anchor="middle" font-family="system-ui" font-size="24" fill="#34C759">&#10003;</text>
      <text x="96" y="52" font-family="system-ui, -apple-system, sans-serif" font-size="15" fill="#86868B">Dla firm Twoich klient&#243;w</text>
      <text x="96" y="86" font-family="system-ui, -apple-system, sans-serif" font-size="36" font-weight="700" fill="#34C759" letter-spacing="-1">0 z&#322;</text>
    </g>

    <!-- Card 3: trial -->
    <g transform="translate(0, 280)">
      <rect width="420" height="120" rx="20" fill="#005CE8"/>
      <text x="36" y="55" font-family="system-ui, -apple-system, sans-serif" font-size="15" fill="white" opacity="0.7">Dla biur rachunkowych</text>
      <text x="36" y="92" font-family="system-ui, -apple-system, sans-serif" font-size="36" font-weight="700" fill="white" letter-spacing="-1">3 miesi&#261;ce gratis</text>
    </g>
  </g>
</svg>
